<?xml version="1.0" encoding="utf-8"?>
<!-- Generator: Adobe Illustrator 16.0.3, SVG Export Plug-In . SVG Version: 6.00 Build 0)  -->
<!DOCTYPE svg PUBLIC "-//W3C//DTD SVG 1.1//EN" "http://www.w3.org/Graphics/SVG/1.1/DTD/svg11.dtd">
<svg version="1.1" id="Capa_1" xmlns="http://www.w3.org/2000/svg" xmlns:xlink="http://www.w3.org/1999/xlink" x="0px" y="0px"
	 width="1280px" height="800px" viewBox="0 0 1280 800" enable-background="new 0 0 1280 800" xml:space="preserve">
<path fill="#97C93E" d="M594.667,37.566L322.9,309.4c-50.037,49.989-50.076,131.076-0.086,181.113
	c0.029,0.028,0.058,0.058,0.086,0.086l271.833,271.834c49.989,50.037,131.076,50.075,181.113,0.086
	c0.029-0.028,0.058-0.058,0.087-0.086l90.633-90.601l-90.633-90.6l-90.601,90.6L413.467,400L685.3,128.167L866.533,309.4
	L685.3,490.6l90.601,90.634L957.134,400c50.046-49.98,50.1-131.067,0.119-181.114c-0.04-0.04-0.08-0.08-0.119-0.12l-181.601-181.2
	c-49.726-49.936-130.518-50.105-180.453-0.38c-0.127,0.126-0.254,0.253-0.38,0.38H594.667z"/>
</svg>
